<svg xmlns="http://www.w3.org/2000/svg" width="564px" height="208px" viewBox="0 0 564 208" version="1.1"><title>Logo ZeroTube</title><defs><linearGradient x1="0%" y1="50%" x2="100%" y2="50%" id="linearGradient-1"><stop stop-color="#6B15D3" offset="0%"/><stop stop-color="#4961DD" offset="100%"/></linearGradient></defs><g stroke="none" stroke-width="1" fill="none" fill-rule="evenodd"><g id="Logo"><path d="M560 37C557 18.0000015 542 7 531 4 520 1 438.789892 0 414 0 390.40575 1.77635684e-15 308 1 297 4 286 7 271 18 268 37 265 56 264 93.554145 264 104 264 115.35659 265 152 268 171 271 190 285.999999 201 297 204 308 207 392.512218 208 414 208 440.254429 208 520 207 531 204 542 201 557 190 560 171 563 152 564 113.27906 564 104 564 93.3853047 563 56.0000015 560 37ZM328 169L308 169 308 53 287 53 287 34 350 34 350 53 328 53 328 169ZM404 169L386 169 386 158C383.788921 159.948424 381.848143 161.904754 380 164 378.368074 165.142865 376.694989 166.424598 375 167 373.482617 168.313497 371.876456 168.988093 370 169 368.664085 169.797621 366.991 170 365 170 360.833955 170 357.487785 168.448428 355 165 353.873867 163.45634 353.003863 161.297631 353 159 352.20077 156.440464 352 152.257966 352 146L352 68 370 68 370 142C370.069498 145.039697 370.10296 146.996027 370 148 370.236809 148.884925 370.404117 149.694441 371 150 371.073361 152.392867 372.344906 153.404762 374 153 378.100404 153.404762 381.915038 150.571457 386 145L386 68 404 68 404 169ZM438 78C441.414158 73.9525021 444.49241 71.0939748 447 69 450.11365 67.730951 453.258821 66.8902077 457 67 462.761394 66.8902077 467.111098 69.5805864 470 75 470.457074 76.3066338 470.992422 77.6518231 471 79 471.795457 80.3422421 472.130049 81.8892099 472 84 472.665405 85.3867545 472.832702 87.4381682 473 90 472.966541 92.1464015 473 95.0049288 473 98L473 139C473 141.885279 472.966541 144.743806 473 147 472.832702 149.452039 472.665405 151.503453 472 153 472.130049 155.000998 471.795457 156.547966 471 158 470.992422 159.238385 470.457074 160.583574 470 162 467.111098 167.309621 462.761394 170 457 170 453.258821 170 450.11365 169.159257 447 167 444.49241 165.796233 441.414158 162.937706 438 159L438 169 420 169 420 34 438 34 438 78ZM438 149C441.10319 151.520668 444.138874 153 447 153 450.345254 153 452.503963 151.789637 454 149 454.25794 148.158495 454.662698 146.88089 455 146 454.93254 144.191156 455 141.770431 455 138L455 98C455 94.2295695 454.93254 91.7752232 455 90 454.662698 88.9510016 454.25794 87.7070179 454 87 452.503963 84.2103625 450.345254 83 447 83 444.138874 83 441.10319 84.479332 438 87L438 149ZM505 122L505 140C505.066914 148.835663 508.011123 153.471624 514 153 519.520474 153.471624 522.397769 149.709105 523 142L523 137 523 134 541 134 541 139C541 144.065259 540.665431 148.230906 540 151 539.327134 153.874769 538.122685 156.562283 536 159 533.973966 162.60928 530.829016 165.296794 527 167 523.066895 169.05937 518.918238 170 515 170 510.219309 170 506.104109 169.05937 502 167 498.208159 165.296794 495.096666 162.810844 493 160 490.680287 156.898225 489.174726 153.673208 488 150 487.43494 146.416812 487 141.713662 487 136L487 101C487 95.15196 487.43494 90.4152168 488 87 489.174726 83.2931981 490.613373 80.1017754 493 77 494.895922 74.1891561 497.973958 71.7032058 502 70 505.736079 67.9406299 509.817822 67 514 67 518.382921 67 522.397751 67.9070359 526 70 529.892212 71.5352341 532.970248 74.0547784 535 77 537.386627 80.1017754 538.825274 83.2931981 540 87 540.56506 90.4152168 541 95.15196 541 101L541 122 505 122ZM524 97C524 91.999976 523.292142 88.500011 522 86 520.460667 84.099989 518.202263 83 515 83 509.033678 83 506 87.599954 506 97L506 106 524 106 524 97Z" id="Tube" fill="url(#linearGradient-1)"/><path d="M60 169L-1.42108547e-14 169 -1.42108547e-14 150 39 53 3 53 3 34 60 34 60 53 21 150 60 150 60 169ZM89 122L89 140C89.0669145 148.835663 92.011123 153.471624 98 153 103.520474 153.471624 106.397769 149.709105 107 142L107 137 107 134 125 134 125 139C125 144.065259 124.665431 148.230906 124 151 123.327134 153.874769 122.122685 156.562283 120 159 117.973966 162.60928 114.829016 165.296794 111 167 107.066895 169.05937 102.918238 170 99 170 94.2193094 170 90.104109 169.05937 86 167 82.2081587 165.296794 79.0966657 162.810844 77 160 74.6802867 156.898225 73.1747255 153.673208 72 150 71.4349399 146.416812 71 141.713662 71 136L71 101C71 95.15196 71.4349399 90.4152168 72 87 73.1747255 83.2931981 74.6133729 80.1017754 77 77 78.8959222 74.1891561 81.9739583 71.7032058 86 70 89.7360789 67.9406299 93.8178225 67 98 67 102.382921 67 106.397751 67.9070359 110 70 113.892212 71.5352341 116.970248 74.0547784 119 77 121.386627 80.1017754 122.825274 83.2931981 124 87 124.56506 90.4152168 125 95.15196 125 101L125 122 89 122ZM107 97C107 91.999976 106.292142 88.500011 105 86 103.460667 84.099989 101.202263 83 98 83 92.0336775 83 89 87.599954 89 97L89 106 107 106 107 97ZM159 68L159 83C162.279477 77.2539406 165.511768 73.3075515 169 71 172.245808 68.5853057 176.286172 67.2698426 181 67L181 87C179.653192 86.6309504 178.542092 86.3611118 178 86 176.791241 86.0912692 175.81482 86.0238095 175 86 164.366952 86.0238095 159.181818 93.3769106 159 108L159 169 141 169 141 68 159 68ZM244 136C244 141.84804 243.560155 146.584783 243 150 241.800747 153.706802 240.345875 156.898225 238 160 236.015026 162.810844 232.969944 165.296794 229 167 225.390958 169.05937 221.330849 170 217 170 212.669151 170 208.609042 169.05937 205 167 201.030056 165.296794 197.984974 162.810844 196 160 193.654125 156.898225 192.199253 153.706802 191 150 190.439845 146.584783 190 141.84804 190 136L190 101C190 95.15196 190.439845 90.4152168 191 87 192.199253 83.2931981 193.654125 80.1017754 196 77 197.984974 74.1891561 201.030056 71.7032058 205 70 208.609042 67.9406299 212.669151 67 217 67 221.330849 67 225.390958 67.9406299 229 70 232.969944 71.7032058 236.015026 74.1891561 238 77 240.345875 80.1017754 241.800747 83.2931981 243 87 243.560155 90.4152168 244 95.15196 244 101L244 136ZM209 139C209 143.922214 209.658908 147.452438 211 150 212.29458 151.890501 214.468977 153 218 153 220.531023 153 222.70542 151.890501 224 150 225.341092 147.452438 226 143.922214 226 139L226 97C226 92.0777856 225.341092 88.5475615 224 86 222.70542 84.109499 220.531023 83 218 83 214.468977 83 212.29458 84.109499 211 86 209.658908 88.5475615 209 92.0777856 209 97L209 139Z" id="Zero" fill="#000000"/></g></g></svg>